<svg width="600" height="600" viewBox="0 0 600 600" fill="none" xmlns="http://www.w3.org/2000/svg">
<g clip-path="url(#clip0)">
<rect x="649" y="-60" width="708" height="677" transform="rotate(90 649 -60)" fill="white"/>
<path fill-rule="evenodd" clip-rule="evenodd" d="M543.531 306.916C449.811 384.131 318.591 358.266 198.568 339.079C88.2112 321.436 -31.4072 300.178 -90.8716 205.497C-150.309 110.857 -118.532 -6.32916 -85.2963 -112.902C-49.9838 -226.133 -12.274 -351.926 97.1962 -397.55C212.02 -445.405 340.252 -399.456 446.554 -334.561C555.014 -268.348 649.991 -174.081 668.978 -48.4893C688.749 82.2914 645.517 222.89 543.531 306.916Z" fill="#008075"/>
<path opacity="0.65" fill-rule="evenodd" clip-rule="evenodd" d="M379.506 547.798C367.916 667.766 257.611 741.707 159.858 812.476C69.9781 877.546 -28.9446 946.579 -137.185 921.862C-245.378 897.156 -305.352 792.609 -356.849 694.487C-411.562 590.235 -473.414 475.483 -428.582 366.633C-381.557 252.46 -259.247 194.711 -139.034 165.651C-16.3793 136 116.508 135.502 218.03 210.32C323.747 288.23 392.117 417.249 379.506 547.798Z" fill="#68B8C0"/>
<path opacity="0.65" fill-rule="evenodd" clip-rule="evenodd" d="M1063.51 593.798C1051.92 713.766 941.611 787.707 843.858 858.476C753.978 923.546 655.055 992.579 546.815 967.862C438.622 943.156 378.648 838.609 327.151 740.487C272.438 636.235 210.586 521.483 255.418 412.633C302.443 298.46 424.753 240.711 544.966 211.651C667.621 182 800.508 181.502 902.03 256.32C1007.75 334.23 1076.12 463.249 1063.51 593.798Z" fill="#3EB549"/>
</g>
<defs>
<clipPath id="clip0">
<rect width="600" height="600" fill="white" transform="translate(600) rotate(90)"/>
</clipPath>
</defs>
</svg>
